<svg version="1.1" id="Layer_1" xmlns="http://www.w3.org/2000/svg" xmlns:xlink="http://www.w3.org/1999/xlink" x="0px" y="0px"
	 width="100%" viewBox="0 0 1845 1235" enable-background="new 0 0 1845 1235" xml:space="preserve">
<path fill="#2052D4" opacity="1.000000" stroke="none" 
	d="
M1846.000000,569.000000 
	C1846.000000,601.687561 1846.000000,634.375122 1845.582764,667.386719 
	C1844.787231,668.389526 1844.149658,669.038818 1844.068604,669.751404 
	C1842.344238,684.921692 1841.265015,700.192139 1838.858154,715.250977 
	C1835.973511,733.298950 1832.977539,751.441528 1828.204712,769.048462 
	C1821.341309,794.367493 1813.397217,819.434937 1804.865601,844.249146 
	C1796.187500,869.489258 1784.630981,893.552368 1772.019897,917.098877 
	C1758.088501,943.110657 1742.401123,967.980103 1725.082886,991.870911 
	C1708.435181,1014.836792 1690.148193,1036.438965 1670.462280,1056.771606 
	C1657.703857,1069.948975 1644.058716,1082.357910 1630.047241,1094.208252 
	C1614.531372,1107.330933 1598.602539,1120.069702 1582.032593,1131.817505 
	C1556.248169,1150.098389 1529.148926,1166.411621 1500.192017,1179.223267 
	C1478.696777,1188.733398 1457.013672,1197.986694 1434.868774,1205.809937 
	C1416.308350,1212.366699 1397.046509,1217.036865 1377.927612,1221.880371 
	C1364.963745,1225.164551 1351.784180,1227.790283 1338.563843,1229.814941 
	C1325.587158,1231.802490 1312.433594,1232.625610 1299.371582,1234.083862 
	C1298.520264,1234.178833 1297.787720,1235.336548 1297.000000,1236.000000 
	C1266.312378,1236.000000 1235.624878,1236.000000 1204.613159,1235.582764 
	C1199.679565,1234.445679 1195.080200,1233.650879 1190.458618,1233.019653 
	C1175.374756,1230.959595 1160.141724,1229.683716 1145.224731,1226.778320 
	C1118.029297,1221.481323 1090.945068,1215.329468 1065.020996,1205.359985 
	C1040.511963,1195.934814 1015.714539,1186.861816 992.272705,1175.170288 
	C968.508667,1163.318115 946.248901,1148.449341 923.156616,1134.600952 
	C895.880798,1115.562866 870.253052,1094.970337 846.521667,1072.130371 
	C810.884399,1037.831665 779.709412,999.823303 753.153503,958.048401 
	C727.461914,917.633057 706.700562,874.828979 690.835022,829.665161 
	C678.431152,794.355591 668.876953,758.250305 663.369019,721.235596 
	C659.795288,697.218872 656.622253,673.035950 655.329468,648.817627 
	C654.136353,626.466614 655.284180,603.952881 656.176453,581.541687 
	C656.770386,566.623535 658.421387,551.723877 660.161499,536.881897 
	C661.776794,523.105103 663.369995,509.246460 666.351074,495.727753 
	C670.793701,475.581421 675.577209,455.426147 681.808350,435.779816 
	C689.440308,411.716888 698.065918,387.913208 707.508606,364.500244 
	C713.818909,348.854065 721.889648,333.861359 729.929443,318.985229 
	C737.858276,304.314301 746.343933,289.906738 755.287354,275.829712 
	C772.935181,248.051926 792.980103,222.068008 815.002747,197.574982 
	C837.316284,172.758423 861.362488,149.821167 887.578796,129.190979 
	C899.327393,119.945786 911.403137,111.116425 923.596191,101.895599 
	C948.596375,85.068771 974.042542,69.592278 1001.291809,57.480324 
	C1022.612183,48.003693 1044.188110,38.938427 1066.174316,31.173912 
	C1084.579468,24.674084 1103.645020,19.934032 1122.603516,15.149398 
	C1135.883301,11.797913 1149.404907,9.223497 1162.948242,7.149522 
	C1175.756836,5.188044 1188.738403,4.364770 1201.629883,2.916021 
	C1202.480957,2.820376 1203.212769,1.663341 1204.000000,0.999998 
	C1234.687622,1.000000 1265.375122,1.000000 1296.386841,1.417244 
	C1301.325562,2.554439 1305.929932,3.348941 1310.556519,3.980630 
	C1325.656128,6.042194 1340.907227,7.311741 1355.837158,10.230304 
	C1382.412842,15.425462 1408.621460,22.148911 1434.337769,30.862198 
	C1461.485840,40.060642 1487.931030,50.850777 1513.260010,64.184982 
	C1530.193115,73.099205 1547.040649,82.352547 1563.050293,92.797119 
	C1580.573120,104.229004 1597.486450,116.700470 1613.925049,129.658142 
	C1629.173096,141.677155 1644.108765,154.257156 1657.965454,167.832016 
	C1672.703369,182.270187 1686.674316,197.623550 1699.769043,213.571716 
	C1714.616089,231.654251 1728.757568,250.399490 1742.051392,269.653687 
	C1760.312134,296.102142 1775.587158,324.351624 1788.929321,353.621429 
	C1800.668213,379.373840 1811.162231,405.649200 1818.857056,432.860840 
	C1825.376099,455.914032 1830.662842,479.335907 1835.838989,502.739716 
	C1838.342529,514.059570 1839.495605,525.692627 1840.970825,537.220886 
	C1842.200562,546.831604 1842.958130,556.502136 1844.076538,566.128601 
	C1844.194824,567.146484 1845.334351,568.045715 1846.000000,569.000000 
z"/>
<path fill="#F1416C" opacity="1.000000" stroke="none" 
	d="
M923.330383,102.098328 
	C911.403137,111.116425 899.327393,119.945786 887.578796,129.190979 
	C861.362488,149.821167 837.316284,172.758423 815.002747,197.574982 
	C792.980103,222.068008 772.935181,248.051926 755.287354,275.829712 
	C746.343933,289.906738 737.858276,304.314301 729.929443,318.985229 
	C721.889648,333.861359 713.818909,348.854065 707.508606,364.500244 
	C698.065918,387.913208 689.440308,411.716888 681.808350,435.779816 
	C675.577209,455.426147 670.793701,475.581421 666.351074,495.727753 
	C663.369995,509.246460 661.776794,523.105103 660.161499,536.881897 
	C658.421387,551.723877 656.770386,566.623535 656.176453,581.541687 
	C655.284180,603.952881 654.136353,626.466614 655.329468,648.817627 
	C656.622253,673.035950 659.795288,697.218872 663.369019,721.235596 
	C668.876953,758.250305 678.431152,794.355591 690.835022,829.665161 
	C706.700562,874.828979 727.461914,917.633057 753.153503,958.048401 
	C779.709412,999.823303 810.884399,1037.831665 846.521667,1072.130371 
	C870.253052,1094.970337 895.880798,1115.562866 922.955444,1134.908203 
	C898.210815,1151.951050 872.906494,1167.447144 845.752197,1179.504639 
	C824.524841,1188.930664 803.087769,1198.057495 781.196899,1205.763550 
	C762.556396,1212.325439 743.277283,1217.270264 724.017517,1221.815796 
	C707.552002,1225.701904 690.751709,1228.248779 674.023987,1230.914673 
	C664.481812,1232.435425 654.783813,1232.967896 645.172119,1234.083984 
	C644.384583,1234.175537 643.721130,1235.336182 643.000000,1236.000000 
	C612.312439,1236.000000 581.624878,1236.000000 550.702637,1235.607666 
	C546.022583,1234.480713 541.592041,1233.636597 537.129211,1233.031250 
	C521.899170,1230.964722 506.513275,1229.726807 491.452515,1226.803955 
	C464.825104,1221.636353 438.578400,1214.892456 412.815308,1206.161865 
	C385.650024,1196.956055 359.183411,1186.190674 333.837097,1172.850830 
	C316.981537,1163.979736 300.370361,1154.557739 284.186371,1144.517334 
	C260.129822,1129.592896 237.327301,1112.816406 216.368484,1093.744995 
	C201.115540,1079.865479 186.289780,1065.500610 171.613464,1051.007935 
	C154.035675,1033.650146 138.835907,1014.251160 123.950081,994.567810 
	C104.724129,969.145508 87.750183,942.278015 73.218132,914.005249 
	C62.589020,893.325745 52.763260,872.100830 44.437817,850.405823 
	C35.495056,827.102295 28.040159,803.159119 21.229860,779.128418 
	C16.142324,761.176514 12.860518,742.691223 9.262289,724.347717 
	C7.314365,714.417419 6.215632,704.306641 5.054658,694.240295 
	C4.113135,686.076599 3.689397,677.853943 2.896707,669.670959 
	C2.837371,669.058472 1.658452,668.554443 0.999996,668.000000 
	C1.000000,635.312439 1.000000,602.624878 1.392304,569.702576 
	C2.179479,568.786133 2.845507,568.136108 2.929256,567.418152 
	C4.656493,552.609558 5.772504,537.705872 8.129186,523.000488 
	C11.089490,504.528656 14.145937,485.983063 18.817019,467.897034 
	C24.655464,445.291046 31.645170,422.940277 39.108910,400.806793 
	C48.586533,372.701172 61.016182,345.802673 75.063286,319.672455 
	C88.972687,293.798492 104.602730,269.031891 121.867363,245.237778 
	C138.496017,222.320145 156.618591,200.646683 176.364212,180.467911 
	C191.362808,165.140320 207.509903,150.867233 223.824600,136.918686 
	C236.978851,125.672234 250.768860,115.071442 264.948608,105.143745 
	C290.858612,87.003349 317.894012,70.577744 346.861908,57.745930 
	C368.244080,48.274361 389.798126,39.020187 411.829529,31.237309 
	C430.458160,24.656504 449.740814,19.728714 468.997040,15.183642 
	C485.459686,11.297947 502.256989,8.750998 518.981689,6.085212 
	C528.522217,4.564522 538.218445,4.032015 547.828491,2.915883 
	C548.615845,2.824439 549.279114,1.663820 550.000000,0.999996 
	C580.687561,1.000000 611.375122,1.000000 642.297363,1.392301 
	C643.213440,2.179452 643.860962,2.838150 644.581055,2.930393 
	C660.641357,4.987601 676.837891,6.276507 692.743835,9.167980 
	C712.550049,12.768476 732.305542,16.985699 751.733276,22.231663 
	C769.717712,27.087879 787.692383,32.569237 804.857178,39.727730 
	C828.084534,49.414623 850.893677,60.278347 873.202148,71.938492 
	C890.453308,80.955269 906.659607,91.971169 923.330383,102.098328 
z"/>
<path fill="#FFFFFF" opacity="1.000000" stroke="none" 
	d="
M549.531372,0.999996 
	C549.279114,1.663820 548.615845,2.824439 547.828491,2.915883 
	C538.218445,4.032015 528.522217,4.564522 518.981689,6.085212 
	C502.256989,8.750998 485.459686,11.297947 468.997040,15.183642 
	C449.740814,19.728714 430.458160,24.656504 411.829529,31.237309 
	C389.798126,39.020187 368.244080,48.274361 346.861908,57.745930 
	C317.894012,70.577744 290.858612,87.003349 264.948608,105.143745 
	C250.768860,115.071442 236.978851,125.672234 223.824600,136.918686 
	C207.509903,150.867233 191.362808,165.140320 176.364212,180.467911 
	C156.618591,200.646683 138.496017,222.320145 121.867363,245.237778 
	C104.602730,269.031891 88.972687,293.798492 75.063286,319.672455 
	C61.016182,345.802673 48.586533,372.701172 39.108910,400.806793 
	C31.645170,422.940277 24.655464,445.291046 18.817019,467.897034 
	C14.145937,485.983063 11.089490,504.528656 8.129186,523.000488 
	C5.772504,537.705872 4.656493,552.609558 2.929256,567.418152 
	C2.845507,568.136108 2.179479,568.786133 1.392304,569.233887 
	C1.000000,379.740814 1.000000,190.481613 1.000000,1.000000 
	C183.687500,1.000000 366.375092,1.000000 549.531372,0.999996 
z"/>
<path fill="#FFFFFF" opacity="1.000000" stroke="none" 
	d="
M1846.000000,568.531372 
	C1845.334351,568.045715 1844.194824,567.146484 1844.076538,566.128601 
	C1842.958130,556.502136 1842.200562,546.831604 1840.970825,537.220886 
	C1839.495605,525.692627 1838.342529,514.059570 1835.838989,502.739716 
	C1830.662842,479.335907 1825.376099,455.914032 1818.857056,432.860840 
	C1811.162231,405.649200 1800.668213,379.373840 1788.929321,353.621429 
	C1775.587158,324.351624 1760.312134,296.102142 1742.051392,269.653687 
	C1728.757568,250.399490 1714.616089,231.654251 1699.769043,213.571716 
	C1686.674316,197.623550 1672.703369,182.270187 1657.965454,167.832016 
	C1644.108765,154.257156 1629.173096,141.677155 1613.925049,129.658142 
	C1597.486450,116.700470 1580.573120,104.229004 1563.050293,92.797119 
	C1547.040649,82.352547 1530.193115,73.099205 1513.260010,64.184982 
	C1487.931030,50.850777 1461.485840,40.060642 1434.337769,30.862198 
	C1408.621460,22.148911 1382.412842,15.425462 1355.837158,10.230304 
	C1340.907227,7.311741 1325.656128,6.042194 1310.556519,3.980630 
	C1305.929932,3.348941 1301.325562,2.554439 1296.855469,1.417244 
	C1479.928345,1.000000 1662.856689,1.000000 1846.000000,1.000000 
	C1846.000000,190.020844 1846.000000,379.041748 1846.000000,568.531372 
z"/>
<path fill="#FFFFFF" opacity="1.000000" stroke="none" 
	d="
M0.999996,668.468628 
	C1.658452,668.554443 2.837371,669.058472 2.896707,669.670959 
	C3.689397,677.853943 4.113135,686.076599 5.054658,694.240295 
	C6.215632,704.306641 7.314365,714.417419 9.262289,724.347717 
	C12.860518,742.691223 16.142324,761.176514 21.229860,779.128418 
	C28.040159,803.159119 35.495056,827.102295 44.437817,850.405823 
	C52.763260,872.100830 62.589020,893.325745 73.218132,914.005249 
	C87.750183,942.278015 104.724129,969.145508 123.950081,994.567810 
	C138.835907,1014.251160 154.035675,1033.650146 171.613464,1051.007935 
	C186.289780,1065.500610 201.115540,1079.865479 216.368484,1093.744995 
	C237.327301,1112.816406 260.129822,1129.592896 284.186371,1144.517334 
	C300.370361,1154.557739 316.981537,1163.979736 333.837097,1172.850830 
	C359.183411,1186.190674 385.650024,1196.956055 412.815308,1206.161865 
	C438.578400,1214.892456 464.825104,1221.636353 491.452515,1226.803955 
	C506.513275,1229.726807 521.899170,1230.964722 537.129211,1233.031250 
	C541.592041,1233.636597 546.022583,1234.480713 550.233948,1235.607666 
	C367.071655,1236.000000 184.143326,1236.000000 1.000000,1236.000000 
	C1.000000,1046.979126 1.000000,857.958252 0.999996,668.468628 
z"/>
<path fill="#FFFFFF" opacity="1.000000" stroke="none" 
	d="
M1297.468628,1236.000000 
	C1297.787720,1235.336548 1298.520264,1234.178833 1299.371582,1234.083862 
	C1312.433594,1232.625610 1325.587158,1231.802490 1338.563843,1229.814941 
	C1351.784180,1227.790283 1364.963745,1225.164551 1377.927612,1221.880371 
	C1397.046509,1217.036865 1416.308350,1212.366699 1434.868774,1205.809937 
	C1457.013672,1197.986694 1478.696777,1188.733398 1500.192017,1179.223267 
	C1529.148926,1166.411621 1556.248169,1150.098389 1582.032593,1131.817505 
	C1598.602539,1120.069702 1614.531372,1107.330933 1630.047241,1094.208252 
	C1644.058716,1082.357910 1657.703857,1069.948975 1670.462280,1056.771606 
	C1690.148193,1036.438965 1708.435181,1014.836792 1725.082886,991.870911 
	C1742.401123,967.980103 1758.088501,943.110657 1772.019897,917.098877 
	C1784.630981,893.552368 1796.187500,869.489258 1804.865601,844.249146 
	C1813.397217,819.434937 1821.341309,794.367493 1828.204712,769.048462 
	C1832.977539,751.441528 1835.973511,733.298950 1838.858154,715.250977 
	C1841.265015,700.192139 1842.344238,684.921692 1844.068604,669.751404 
	C1844.149658,669.038818 1844.787231,668.389526 1845.582764,667.855347 
	C1846.000000,857.259216 1846.000000,1046.518433 1846.000000,1236.000000 
	C1663.312500,1236.000000 1480.624878,1236.000000 1297.468628,1236.000000 
z"/>
<path fill="#FFFFFF" opacity="1.000000" stroke="none" 
	d="
M923.596191,101.895584 
	C906.659607,91.971169 890.453308,80.955269 873.202148,71.938492 
	C850.893677,60.278347 828.084534,49.414623 804.857178,39.727730 
	C787.692383,32.569237 769.717712,27.087879 751.733276,22.231663 
	C732.305542,16.985699 712.550049,12.768476 692.743835,9.167980 
	C676.837891,6.276507 660.641357,4.987601 644.581055,2.930393 
	C643.860962,2.838150 643.213440,2.179452 642.766052,1.392301 
	C829.687561,1.000000 1016.375183,1.000000 1203.531372,0.999998 
	C1203.212769,1.663341 1202.480957,2.820376 1201.629883,2.916021 
	C1188.738403,4.364770 1175.756836,5.188044 1162.948242,7.149522 
	C1149.404907,9.223497 1135.883301,11.797913 1122.603516,15.149398 
	C1103.645020,19.934032 1084.579468,24.674084 1066.174316,31.173912 
	C1044.188110,38.938427 1022.612183,48.003693 1001.291809,57.480324 
	C974.042542,69.592278 948.596375,85.068771 923.596191,101.895584 
z"/>
<path fill="#FFFFFF" opacity="1.000000" stroke="none" 
	d="
M643.468628,1236.000000 
	C643.721130,1235.336182 644.384583,1234.175537 645.172119,1234.083984 
	C654.783813,1232.967896 664.481812,1232.435425 674.023987,1230.914673 
	C690.751709,1228.248779 707.552002,1225.701904 724.017517,1221.815796 
	C743.277283,1217.270264 762.556396,1212.325439 781.196899,1205.763550 
	C803.087769,1198.057495 824.524841,1188.930664 845.752197,1179.504639 
	C872.906494,1167.447144 898.210815,1151.951050 923.129089,1135.209229 
	C946.248901,1148.449341 968.508667,1163.318115 992.272705,1175.170288 
	C1015.714539,1186.861816 1040.511963,1195.934814 1065.020996,1205.359985 
	C1090.945068,1215.329468 1118.029297,1221.481323 1145.224731,1226.778320 
	C1160.141724,1229.683716 1175.374756,1230.959595 1190.458618,1233.019653 
	C1195.080200,1233.650879 1199.679565,1234.445679 1204.144531,1235.582764 
	C1017.312439,1236.000000 830.624878,1236.000000 643.468628,1236.000000 
z"/>
</svg>