<svg version="1.1" id="Layer_1" xmlns="http://www.w3.org/2000/svg" xmlns:xlink="http://www.w3.org/1999/xlink" x="0px" y="0px"
	 width="100%" viewBox="0 0 1653 1110" enable-background="new 0 0 1653 1110" xml:space="preserve">
<path fill="#313A46" opacity="1.000000" stroke="none" 
	d="
M1076.000000,1111.000000 
	C717.333313,1111.000000 359.166656,1111.000000 1.000000,1111.000000 
	C1.000000,741.000000 1.000000,371.000000 1.000000,1.000000 
	C552.000000,1.000000 1103.000000,1.000000 1654.000000,1.000000 
	C1654.000000,371.000000 1654.000000,741.000000 1654.000000,1111.000000 
	C1461.500000,1111.000000 1269.000000,1111.000000 1076.000000,1111.000000 
M831.330688,970.724121 
	C858.367432,993.827515 887.690735,1013.605164 919.097290,1030.214355 
	C951.003357,1047.087769 984.495667,1059.982666 1019.453613,1069.097412 
	C1049.457275,1076.920288 1079.957153,1082.171265 1110.836548,1083.666138 
	C1132.024902,1084.691895 1153.392944,1083.303833 1174.617920,1081.984985 
	C1211.864502,1079.670776 1248.082031,1071.600464 1283.355103,1059.648560 
	C1325.037964,1045.524414 1364.015259,1025.848755 1400.302979,1000.858765 
	C1436.588989,975.869873 1469.009033,946.579956 1497.632446,913.159119 
	C1516.477661,891.155273 1533.275879,867.611755 1548.258911,842.773682 
	C1569.058960,808.292236 1586.262207,772.101746 1598.270996,733.694824 
	C1605.255859,711.356140 1610.753540,688.500427 1615.829834,665.635193 
	C1619.217285,650.377014 1620.898193,634.720337 1622.926758,619.187622 
	C1624.082153,610.341125 1624.540894,601.393738 1625.064453,592.477112 
	C1625.821899,579.575073 1626.827881,566.660217 1626.840454,553.749939 
	C1626.851685,542.175171 1625.795044,530.589844 1624.968628,519.026428 
	C1624.096191,506.821686 1623.748535,494.501312 1621.729126,482.473663 
	C1618.046143,460.537476 1613.820679,438.660950 1608.873535,416.975800 
	C1601.427002,384.336060 1589.839355,352.998077 1575.745850,322.702209 
	C1558.392456,285.398407 1537.434570,250.211426 1511.658936,217.962540 
	C1494.764526,196.825180 1477.443970,176.139999 1456.889160,158.413559 
	C1443.360229,146.746185 1430.223999,134.532928 1415.971313,123.814774 
	C1389.628296,104.004372 1361.513306,86.998955 1331.517944,73.073692 
	C1300.353516,58.605667 1268.107422,47.400997 1234.573486,40.254795 
	C1217.024292,36.515003 1199.131348,34.144455 1181.283936,32.122726 
	C1165.840820,30.373341 1150.253296,29.485760 1134.710327,29.172892 
	C1123.652588,28.950306 1112.527588,29.959644 1101.495605,31.053915 
	C1084.627686,32.727058 1067.675293,34.156479 1051.003052,37.081863 
	C997.680908,46.438076 947.911560,65.704292 901.141724,92.801445 
	C876.155518,107.277756 852.785461,124.083694 830.210754,142.194382 
	C801.800476,117.665665 770.675171,97.112045 737.330444,80.038094 
	C701.239990,61.558289 663.393860,47.423447 623.566406,39.671638 
	C600.415405,35.165649 576.868530,31.869673 553.348938,30.322800 
	C531.678284,28.897528 509.769531,29.842735 488.030731,30.983500 
	C451.120850,32.920383 415.250549,41.009865 380.247437,52.554474 
	C343.301392,64.739883 308.405914,81.488541 275.589691,102.448769 
	C240.920624,124.592407 209.509506,150.643417 181.140076,180.473801 
	C145.621674,217.821304 116.520836,259.664307 93.164734,305.471191 
	C78.182198,334.855499 66.069145,365.496307 56.912895,397.219147 
	C48.845058,425.171082 42.203297,453.463562 39.008461,482.438873 
	C37.106544,499.688171 34.605648,516.966309 34.263077,534.268860 
	C33.823086,556.491821 34.512691,578.808838 36.146942,600.979797 
	C37.606941,620.786926 40.258156,640.583923 43.716911,660.149658 
	C50.615696,699.175354 62.182556,736.872498 77.567505,773.456787 
	C88.843590,800.270569 101.949371,826.121094 117.447426,850.645752 
	C148.240952,899.374512 185.780411,942.345154 230.739182,978.534485 
	C268.880280,1009.235901 310.707550,1033.932739 356.341858,1051.771729 
	C402.471771,1069.804321 450.289978,1080.550171 499.873444,1083.177734 
	C537.624817,1085.178223 575.034546,1082.754517 612.184021,1075.809448 
	C649.623108,1068.810181 685.600281,1057.159668 720.164490,1041.308838 
	C746.991028,1029.006226 772.546692,1014.309204 796.509705,997.049622 
	C808.242554,988.598816 819.326843,979.247620 831.330688,970.724121 
z"/>
<path fill="#2052D4" opacity="1.000000" stroke="none" 
	d="
M830.709106,142.692200 
	C852.785461,124.083694 876.155518,107.277756 901.141724,92.801445 
	C947.911560,65.704292 997.680908,46.438076 1051.003052,37.081863 
	C1067.675293,34.156479 1084.627686,32.727058 1101.495605,31.053915 
	C1112.527588,29.959644 1123.652588,28.950306 1134.710327,29.172892 
	C1150.253296,29.485760 1165.840820,30.373341 1181.283936,32.122726 
	C1199.131348,34.144455 1217.024292,36.515003 1234.573486,40.254795 
	C1268.107422,47.400997 1300.353516,58.605667 1331.517944,73.073692 
	C1361.513306,86.998955 1389.628296,104.004372 1415.971313,123.814774 
	C1430.223999,134.532928 1443.360229,146.746185 1456.889160,158.413559 
	C1477.443970,176.139999 1494.764526,196.825180 1511.658936,217.962540 
	C1537.434570,250.211426 1558.392456,285.398407 1575.745850,322.702209 
	C1589.839355,352.998077 1601.427002,384.336060 1608.873535,416.975800 
	C1613.820679,438.660950 1618.046143,460.537476 1621.729126,482.473663 
	C1623.748535,494.501312 1624.096191,506.821686 1624.968628,519.026428 
	C1625.795044,530.589844 1626.851685,542.175171 1626.840454,553.749939 
	C1626.827881,566.660217 1625.821899,579.575073 1625.064453,592.477112 
	C1624.540894,601.393738 1624.082153,610.341125 1622.926758,619.187622 
	C1620.898193,634.720337 1619.217285,650.377014 1615.829834,665.635193 
	C1610.753540,688.500427 1605.255859,711.356140 1598.270996,733.694824 
	C1586.262207,772.101746 1569.058960,808.292236 1548.258911,842.773682 
	C1533.275879,867.611755 1516.477661,891.155273 1497.632446,913.159119 
	C1469.009033,946.579956 1436.588989,975.869873 1400.302979,1000.858765 
	C1364.015259,1025.848755 1325.037964,1045.524414 1283.355103,1059.648560 
	C1248.082031,1071.600464 1211.864502,1079.670776 1174.617920,1081.984985 
	C1153.392944,1083.303833 1132.024902,1084.691895 1110.836548,1083.666138 
	C1079.957153,1082.171265 1049.457275,1076.920288 1019.453613,1069.097412 
	C984.495667,1059.982666 951.003357,1047.087769 919.097290,1030.214355 
	C887.690735,1013.605164 858.367432,993.827515 830.794006,970.362549 
	C809.203369,952.017578 789.662903,932.488525 771.835632,911.331055 
	C748.191956,883.270508 727.571716,853.109680 710.147766,820.759033 
	C695.142029,792.898315 682.561401,764.001099 672.578430,734.007751 
	C660.653564,698.180054 652.390991,661.480286 648.107178,623.945190 
	C646.428162,609.233582 644.353821,594.461548 644.230469,579.702209 
	C644.034973,556.319641 644.757080,532.889648 646.188904,509.547119 
	C647.180481,493.381897 649.138306,477.157867 652.242065,461.268311 
	C656.753601,438.172028 661.940063,415.145050 668.263672,392.486237 
	C672.836548,376.100891 679.446228,360.252625 685.671326,344.370117 
	C690.341431,332.454681 695.360229,320.622162 701.106079,309.196442 
	C707.535034,296.412231 714.698364,283.973846 722.001709,271.657471 
	C740.000183,241.304932 760.579773,212.772919 784.968872,187.239059 
	C799.659546,171.858932 815.426086,157.506454 830.709106,142.692200 
z"/>
<path fill="#F1416C" opacity="1.000000" stroke="none" 
	d="
M830.459961,142.443283 
	C815.426086,157.506454 799.659546,171.858932 784.968872,187.239059 
	C760.579773,212.772919 740.000183,241.304932 722.001709,271.657471 
	C714.698364,283.973846 707.535034,296.412231 701.106079,309.196442 
	C695.360229,320.622162 690.341431,332.454681 685.671326,344.370117 
	C679.446228,360.252625 672.836548,376.100891 668.263672,392.486237 
	C661.940063,415.145050 656.753601,438.172028 652.242065,461.268311 
	C649.138306,477.157867 647.180481,493.381897 646.188904,509.547119 
	C644.757080,532.889648 644.034973,556.319641 644.230469,579.702209 
	C644.353821,594.461548 646.428162,609.233582 648.107178,623.945190 
	C652.390991,661.480286 660.653564,698.180054 672.578430,734.007751 
	C682.561401,764.001099 695.142029,792.898315 710.147766,820.759033 
	C727.571716,853.109680 748.191956,883.270508 771.835632,911.331055 
	C789.662903,932.488525 809.203369,952.017578 830.480957,970.152466 
	C819.326843,979.247620 808.242554,988.598816 796.509705,997.049622 
	C772.546692,1014.309204 746.991028,1029.006226 720.164490,1041.308838 
	C685.600281,1057.159668 649.623108,1068.810181 612.184021,1075.809448 
	C575.034546,1082.754517 537.624817,1085.178223 499.873444,1083.177734 
	C450.289978,1080.550171 402.471771,1069.804321 356.341858,1051.771729 
	C310.707550,1033.932739 268.880280,1009.235901 230.739182,978.534485 
	C185.780411,942.345154 148.240952,899.374512 117.447426,850.645752 
	C101.949371,826.121094 88.843590,800.270569 77.567505,773.456787 
	C62.182556,736.872498 50.615696,699.175354 43.716911,660.149658 
	C40.258156,640.583923 37.606941,620.786926 36.146942,600.979797 
	C34.512691,578.808838 33.823086,556.491821 34.263077,534.268860 
	C34.605648,516.966309 37.106544,499.688171 39.008461,482.438873 
	C42.203297,453.463562 48.845058,425.171082 56.912895,397.219147 
	C66.069145,365.496307 78.182198,334.855499 93.164734,305.471191 
	C116.520836,259.664307 145.621674,217.821304 181.140076,180.473801 
	C209.509506,150.643417 240.920624,124.592407 275.589691,102.448769 
	C308.405914,81.488541 343.301392,64.739883 380.247437,52.554474 
	C415.250549,41.009865 451.120850,32.920383 488.030731,30.983500 
	C509.769531,29.842735 531.678284,28.897528 553.348938,30.322800 
	C576.868530,31.869673 600.415405,35.165649 623.566406,39.671638 
	C663.393860,47.423447 701.239990,61.558289 737.330444,80.038094 
	C770.675171,97.112045 801.800476,117.665665 830.459961,142.443283 
z"/>
</svg>