<svg version="1.1" id="Layer_1" xmlns="http://www.w3.org/2000/svg" xmlns:xlink="http://www.w3.org/1999/xlink" x="0px" y="0px"
	 width="100%" viewBox="0 0 512 512" enable-background="new 0 0 512 512" xml:space="preserve">
<path fill="#FFFFFF" opacity="1.000000" stroke="none" 
	d="
M472.468658,513.000000 
	C471.724060,498.902100 470.638031,484.928345 467.834442,471.035980 
	C461.561005,439.949890 449.040009,411.776855 430.297119,386.216705 
	C423.986511,377.610779 417.234283,369.346497 409.651886,361.993866 
	C393.409943,346.244141 375.624847,332.536743 355.325897,322.021637 
	C332.792908,310.349243 309.074310,302.555908 284.080933,299.642090 
	C254.889847,296.238831 225.850983,298.011200 197.386322,306.497528 
	C169.983093,314.667358 145.123291,327.478882 122.927399,345.461731 
	C99.559822,364.393860 80.750641,387.022278 66.680138,413.711090 
	C54.684395,436.464508 47.135773,460.545532 43.585892,485.896637 
	C42.369953,494.580078 41.509247,503.397949 42.867317,512.609436 
	C29.094955,513.000000 15.189909,513.000000 1.000000,513.000000 
	C1.000000,505.648254 1.000000,498.292877 1.145550,490.099701 
	C1.914691,480.001190 3.226220,470.819977 5.096805,461.747192 
	C10.601997,435.045868 19.949940,409.812683 33.340023,385.971436 
	C48.932713,358.208496 69.457565,334.627258 93.674034,314.348236 
	C114.937805,296.541809 138.733887,282.635071 164.872681,272.991699 
	C166.563522,272.367889 168.402924,271.949860 169.121429,269.871979 
	C168.822662,269.469025 168.606461,268.991791 168.240021,268.709991 
	C153.385986,257.285706 140.706253,243.924088 130.667847,227.992020 
	C118.393112,208.510651 111.012398,187.256348 108.969032,164.537552 
	C107.635674,149.712830 107.623001,134.581360 110.815079,119.820190 
	C115.247871,99.321625 123.034378,80.261795 135.310410,63.054329 
	C142.099655,53.537762 150.059875,45.202457 158.575211,37.327869 
	C170.664078,26.148640 184.559647,17.826788 199.711304,11.460775 
	C212.341049,6.154351 225.533768,3.096057 239.000000,1.000000 
	C252.354233,1.000000 265.708466,1.000000 279.782593,1.220853 
	C281.069183,1.785869 281.605682,2.361305 282.207062,2.439851 
	C292.961548,3.844548 303.166687,7.158435 313.219147,11.095842 
	C336.303314,20.137589 355.606415,34.591736 371.417572,53.384342 
	C382.006500,65.970047 390.040405,80.240044 396.138245,95.767792 
	C404.942169,118.186462 406.929230,141.388275 405.000092,164.829910 
	C403.229462,186.346436 396.247467,206.605820 384.915649,225.243179 
	C377.546417,237.363281 369.067169,248.477341 358.328339,257.812347 
	C353.649780,261.879303 349.096130,266.089874 344.576508,270.153625 
	C345.705780,272.292603 347.452148,272.482666 348.987274,273.044617 
	C378.685272,283.916779 405.168732,300.269623 428.484192,321.431427 
	C445.590698,336.957733 460.734375,354.293945 473.313904,373.923981 
	C489.371582,398.981567 500.485809,425.927795 507.368896,454.755157 
	C510.217865,466.687042 511.733307,478.823578 513.000000,491.000000 
	C513.000000,498.282013 513.000000,505.564056 513.000000,513.000000 
	C499.646088,513.000000 486.291718,513.000000 472.468658,513.000000 
M154.317017,119.595749 
	C149.660217,134.287125 148.985931,149.325317 151.345032,164.400681 
	C156.971390,200.354996 176.464340,226.840042 208.244431,243.899857 
	C232.656631,257.004547 258.635773,259.263702 285.432159,251.829849 
	C314.724915,243.703476 336.500122,225.889282 350.976349,199.579315 
	C364.679260,174.674728 367.465149,148.153870 359.883636,120.542038 
	C352.587555,93.969643 336.920197,73.562477 314.151703,58.756378 
	C296.059509,46.991245 275.934418,41.764507 254.119797,42.245735 
	C228.389542,42.813339 206.184570,52.066891 186.909943,68.355927 
	C171.081070,81.732925 160.437454,98.880203 154.317017,119.595749 
z"/>
</svg>